<svg width="860" height="256" viewBox="0 0 860 256" xmlns="http://www.w3.org/2000/svg"><title>speechmatics-logo-light</title><g fill-rule="nonzero" fill="none"><g fill="#FFF"><path d="M49.387 249.038c-5.564 4.439-12.822 6.466-21.22 6.466-11.35 0-21.456-5.919-27.804-11.838l9.078-13.392c5.675 5.92 14.413 9.878 20.428 9.878 5.92 0 10.44-2.834 10.44-8.058 0-5.334-5.793-7.399-9.197-8.627-3.403-1.228-9.3-3.292-11.912-4.439-1.931-.903-5.92-2.382-9.308-5.675-3.403-3.181-6.126-7.717-6.126-15.094a22.063 22.063 0 0 1 8.139-17.135c4.439-3.744 11.579-6.245 20.657-6.245 9.079 0 19.518 4.314 24.853 9.619l-7.828 12.822c-4.535-4.536-11.572-7.947-17.476-7.947s-10.21 2.272-10.21 7.037c0 4.765 4.439 6.585 7.946 7.946 3.403 1.361 9.197 3.404 11.69 4.44 2.16.791 7.399 2.833 10.891 6.355a20.487 20.487 0 0 1 6.126 15.094 23.72 23.72 0 0 1-9.167 18.793zM124.182 219.302c-5.223 4.313-12.37 5.919-20.428 5.919h-9.619v28.944H75.72v-78.331h28.034c8.057 0 15.205 1.59 20.428 5.919 5.224 4.328 8.139 10.358 8.139 18.726 0 8.368-2.886 14.398-8.139 18.823zm-14.19-27.124c-2.272-1.591-4.884-2.16-8.88-2.16h-7.147v20.997h7.148c3.973 0 6.585-.57 8.878-2.16 2.16-1.591 3.744-4.44 3.744-8.398 0-3.959-1.583-6.696-3.744-8.28zM197.557 254.143h-51.748v-78.31h50.734v14.643h-32.459v16.004h30.639v14.642h-30.639v18.157h33.48zM268.038 254.143H216.29v-78.31h50.734v14.643h-32.458v16.004h30.638v14.642h-30.638v18.157h33.48zM349.248 244.835c-3.974 4.092-12.26 10.67-28.264 10.67-23.04 0-41.078-15.205-41.078-40.406 0-25.304 18.267-40.405 41.078-40.405 16.115 0 24.853 6.696 26.895 8.879l-5.675 15.204c-1.48-1.93-9.87-8.138-20.199-8.138-13.28 0-23.491 8.878-23.491 24.179 0 15.3 10.669 24.061 23.491 24.061 9.76 0 16.795-3.862 21.109-8.287l6.134 14.243zM433.232 254.143h-18.386v-32.821h-31.438v32.799h-18.386v-78.287h18.386v30.335h31.438v-30.335h18.386zM542.461 254.143H531.57l-5.105-61.854h-.34l-23.95 62.535h-6.245l-23.928-62.535h-.34l-4.995 61.854h-10.943l7.037-78.31h13.68l22.589 60.493h.222l22.581-60.492h13.51zM627.526 254.143h-12.26l-8.058-20.428h-33.59l-8.058 20.428h-11.579l31.89-78.539h9.618l32.037 78.539zm-23.38-29.595l-13.763-35.212-13.732 35.182 27.494.03zM682.566 185.023h-22.02v69.12h-10.972v-69.12h-22.196v-9.19h55.158zM709.401 254.143h-10.995v-78.31h11.01zM794.295 243.925c-4.875 5.446-13.732 11.572-28.596 11.572-22.81 0-40.057-15.996-40.057-40.405s17.58-40.383 40.05-40.383c14.642 0 23.49 6.126 27.804 10.358l-4.653 8.879c-3.064-3.862-11.839-9.53-22.7-9.53-16.906 0-29.166 12.142-29.166 30.528s12.37 30.527 29.166 30.527c10.358 0 18.275-3.973 23.38-9.53l4.772 7.984zM851.563 249.37c-4.884 3.974-11.35 6.127-19.186 6.127-13.732 0-21.56-8.879-25.304-13.163l6.467-7.399c3.973 5.335 11.35 11.24 19.866 11.24s15.323-4.884 15.323-13.17c0-8.14-8.738-11.35-12.711-12.941-4.092-1.59-9.53-3.744-12.49-5.216a25.282 25.282 0 0 1-7.828-5.564c-2.833-2.96-5.105-7.266-5.105-13.622a19.481 19.481 0 0 1 7.147-15.093c4.314-3.633 10.44-5.786 18.046-5.786 12.822 0 20.317 7.828 22.478 10.1l-5.793 7.487c-3.863-4.084-9.53-8.398-17.255-8.398-7.724 0-13.613 3.633-13.613 10.899 0 7.265 5.334 9.988 10.099 11.912l14.413 6.015c1.48.68 6.245 3.293 8.879 6.356 3.11 3.68 4.8 8.352 4.764 13.17a21.797 21.797 0 0 1-8.197 17.047z"/></g><path d="M632.816.777c-3.433-.082-24.483-2.116-46.058 22.559C561.12 52.65 526.22 46.272 526.22 46.272c52.598 64.148 93.861 70.852 93.861 70.852A58.858 58.858 0 1 0 632.786.829l.03-.052zm1.48 89.97c-17.018 0-30.772-13.94-30.772-31.135 0-17.194 13.776-31.134 30.771-31.134 16.996 0 30.772 13.94 30.772 31.134 0 17.195-13.799 31.135-30.794 31.135h.022z" fill="#FFF"/><path d="M466.083 4.935a59.442 59.442 0 0 1 19.88 95.297 92.712 92.712 0 0 0 4.07-4.35c25.637-29.315 60.537-22.937 60.537-22.937-37.579-45.828-69.379-62.328-84.487-68.01z" fill="#92C4BD"/><path d="M442.562.096c-32.878 0-59.531 26.653-59.531 59.531s26.653 59.531 59.53 59.531c32.879 0 59.532-26.653 59.532-59.53 0-32.879-26.653-59.532-59.531-59.532zm0 90.658c-17.017 0-30.772-13.94-30.772-31.134 0-17.195 13.777-31.134 30.772-31.134 16.995 0 30.772 13.939 30.772 31.134s-13.777 31.12-30.772 31.12v.014z" fill="#FFF"/><path d="M383.038 59.605a59.265 59.265 0 0 1 16.366-40.916c-1.48 1.436-2.9 2.96-4.358 4.625C369.41 52.628 334.51 46.25 334.51 46.25c37.608 45.873 69.409 62.358 84.495 68.07-21.843-9.416-35.984-30.93-35.966-54.715zM466.083 4.935a59.442 59.442 0 0 1 19.88 95.297 92.712 92.712 0 0 0 4.07-4.35c25.637-29.315 60.537-22.937 60.537-22.937-37.579-45.828-69.379-62.328-84.487-68.01z" fill="#92C4BD"/><path d="M252.315 118.44c3.433.082 24.483 2.117 46.058-22.558 25.637-29.315 60.538-22.937 60.538-22.937-52.599-64.148-93.862-70.851-93.862-70.851a58.858 58.858 0 1 0-12.704 116.295l-.03.052zm-1.48-89.97c17.018 0 30.772 13.94 30.772 31.135S267.831 90.74 250.836 90.74c-16.996 0-30.772-13.939-30.772-31.134s13.799-31.134 30.786-31.134h-.014z" fill="#FFF"/></g></svg>